<mxfile host="65bd71144e">
    <diagram name="general-packet-data-structure" id="DgObGh0K3FO2h74P8s7o">
        <mxGraphModel dx="1376" dy="984" grid="0" gridSize="10" guides="1" tooltips="1" connect="1" arrows="1" fold="1" page="1" pageScale="1" pageWidth="1169" pageHeight="1654" math="0" shadow="0">
            <root>
                <mxCell id="0"/>
                <mxCell id="1" parent="0"/>
                <mxCell id="3IAuQP8cZI7VwLqN17xs-4" value="packet data" style="rounded=0;whiteSpace=wrap;html=1;fillColor=#1ba1e2;fontColor=#ffffff;strokeColor=#006EAF;shadow=1;glass=0;" parent="1" vertex="1">
                    <mxGeometry x="280" y="240" width="680" height="40" as="geometry"/>
                </mxCell>
                <mxCell id="3IAuQP8cZI7VwLqN17xs-5" value="header" style="rounded=0;whiteSpace=wrap;html=1;fillColor=#0050ef;fontColor=#ffffff;strokeColor=#001DBC;shadow=1;glass=0;" parent="1" vertex="1">
                    <mxGeometry x="280" y="320" width="320" height="40" as="geometry"/>
                </mxCell>
                <mxCell id="3IAuQP8cZI7VwLqN17xs-6" value="payload" style="rounded=0;whiteSpace=wrap;html=1;fillColor=#60a917;fontColor=#ffffff;strokeColor=#2D7600;shadow=1;glass=0;" parent="1" vertex="1">
                    <mxGeometry x="600" y="320" width="360" height="40" as="geometry"/>
                </mxCell>
                <mxCell id="3IAuQP8cZI7VwLqN17xs-7" value="&lt;font style=&quot;font-size: 8px; color: rgb(255, 255, 255);&quot;&gt;preamble&lt;/font&gt;" style="rounded=0;whiteSpace=wrap;html=1;fillColor=#0050ef;fontColor=#FFFFFF;strokeColor=#001DBC;shadow=1;glass=0;" parent="1" vertex="1">
                    <mxGeometry x="280" y="400" width="40" height="40" as="geometry"/>
                </mxCell>
                <mxCell id="3IAuQP8cZI7VwLqN17xs-8" value="&lt;font style=&quot;font-size: 8px; color: rgb(255, 255, 255);&quot;&gt;flag&lt;/font&gt;" style="rounded=0;whiteSpace=wrap;html=1;fillColor=#0050ef;fontColor=#FFFFFF;strokeColor=#001DBC;shadow=1;glass=0;" parent="1" vertex="1">
                    <mxGeometry x="320" y="400" width="40" height="40" as="geometry"/>
                </mxCell>
                <mxCell id="3IAuQP8cZI7VwLqN17xs-9" value="&lt;font style=&quot;font-size: 8px; color: rgb(255, 255, 255);&quot;&gt;length&lt;/font&gt;" style="rounded=0;whiteSpace=wrap;html=1;fillColor=#0050ef;fontColor=#FFFFFF;strokeColor=#001DBC;shadow=1;glass=0;" parent="1" vertex="1">
                    <mxGeometry x="360" y="400" width="80" height="40" as="geometry"/>
                </mxCell>
                <mxCell id="3IAuQP8cZI7VwLqN17xs-10" value="&lt;font style=&quot;font-size: 8px; color: rgb(255, 255, 255);&quot;&gt;crc&lt;/font&gt;" style="rounded=0;whiteSpace=wrap;html=1;fillColor=#0050ef;fontColor=#FFFFFF;strokeColor=#001DBC;shadow=1;glass=0;" parent="1" vertex="1">
                    <mxGeometry x="440" y="400" width="80" height="40" as="geometry"/>
                </mxCell>
                <mxCell id="3IAuQP8cZI7VwLqN17xs-11" value="&lt;font style=&quot;font-size: 8px; color: rgb(255, 255, 255);&quot;&gt;tid&lt;/font&gt;" style="rounded=0;whiteSpace=wrap;html=1;fillColor=#0050ef;fontColor=#FFFFFF;strokeColor=#001DBC;shadow=1;glass=0;" parent="1" vertex="1">
                    <mxGeometry x="520" y="400" width="80" height="40" as="geometry"/>
                </mxCell>
                <mxCell id="3IAuQP8cZI7VwLqN17xs-13" value="&lt;span style=&quot;font-size: 8px;&quot;&gt;len&lt;/span&gt;" style="rounded=0;whiteSpace=wrap;html=1;fillColor=#cdeb8b;strokeColor=#36393d;shadow=1;glass=0;" parent="1" vertex="1">
                    <mxGeometry x="636.5" y="513" width="40" height="40" as="geometry"/>
                </mxCell>
                <mxCell id="3IAuQP8cZI7VwLqN17xs-14" value="&lt;span style=&quot;font-size: 8px;&quot;&gt;key&lt;/span&gt;" style="rounded=0;whiteSpace=wrap;html=1;fillColor=#cdeb8b;strokeColor=#36393d;shadow=1;glass=0;" parent="1" vertex="1">
                    <mxGeometry x="676.5" y="513" width="40" height="40" as="geometry"/>
                </mxCell>
                <mxCell id="3IAuQP8cZI7VwLqN17xs-15" value="&lt;span style=&quot;font-size: 8px;&quot;&gt;value&lt;/span&gt;" style="rounded=0;whiteSpace=wrap;html=1;fillColor=#cdeb8b;strokeColor=#36393d;shadow=1;glass=0;" parent="1" vertex="1">
                    <mxGeometry x="716.5" y="513" width="48" height="40" as="geometry"/>
                </mxCell>
                <mxCell id="3IAuQP8cZI7VwLqN17xs-23" value="" style="verticalLabelPosition=bottom;shadow=0;dashed=0;align=center;html=1;verticalAlign=top;strokeWidth=2;shape=mxgraph.mockup.markup.curlyBrace;whiteSpace=wrap;strokeColor=#999999;rounded=0;glass=0;fontFamily=Helvetica;fontSize=12;fontColor=#ffffff;fillColor=#1ba1e2;" parent="1" vertex="1">
                    <mxGeometry x="282" y="280" width="677" height="36" as="geometry"/>
                </mxCell>
                <mxCell id="3IAuQP8cZI7VwLqN17xs-24" value="" style="verticalLabelPosition=bottom;shadow=0;dashed=0;align=center;html=1;verticalAlign=top;strokeWidth=2;shape=mxgraph.mockup.markup.curlyBrace;whiteSpace=wrap;strokeColor=#001DBC;rounded=0;glass=0;fontFamily=Helvetica;fontSize=12;fontColor=#ffffff;fillColor=#0050ef;" parent="1" vertex="1">
                    <mxGeometry x="280" y="363" width="319" height="37" as="geometry"/>
                </mxCell>
                <mxCell id="3IAuQP8cZI7VwLqN17xs-25" value="" style="verticalLabelPosition=bottom;shadow=0;dashed=0;align=center;html=1;verticalAlign=top;strokeWidth=2;shape=mxgraph.mockup.markup.curlyBrace;whiteSpace=wrap;strokeColor=#005700;rounded=0;glass=0;fontFamily=Helvetica;fontSize=12;fontColor=#ffffff;fillColor=#008a00;" parent="1" vertex="1">
                    <mxGeometry x="601" y="363" width="357" height="37" as="geometry"/>
                </mxCell>
                <mxCell id="3IAuQP8cZI7VwLqN17xs-28" value="" style="verticalLabelPosition=bottom;shadow=0;dashed=0;align=center;html=1;verticalAlign=top;strokeWidth=2;shape=mxgraph.mockup.markup.curlyBrace;whiteSpace=wrap;strokeColor=light-dark(#23E24F,#008305);rounded=0;glass=0;fontFamily=Helvetica;fontSize=12;fontColor=#ffffff;fillColor=none;rotation=0;" parent="1" vertex="1">
                    <mxGeometry x="637" y="477" width="127" height="39" as="geometry"/>
                </mxCell>
                <mxCell id="3IAuQP8cZI7VwLqN17xs-35" value="" style="verticalLabelPosition=bottom;shadow=0;dashed=0;align=center;html=1;verticalAlign=top;strokeWidth=2;shape=mxgraph.mockup.markup.curlyBrace;whiteSpace=wrap;strokeColor=#006EAF;rounded=0;glass=0;fontFamily=Helvetica;fontSize=12;fontColor=#ffffff;fillColor=#1ba1e2;rotation=-180;" parent="1" vertex="1">
                    <mxGeometry x="640" y="607" width="318" height="37" as="geometry"/>
                </mxCell>
                <mxCell id="3IAuQP8cZI7VwLqN17xs-36" value="&lt;font style=&quot;font-size: 9px;&quot; color=&quot;#330000&quot;&gt;count:[0, n]&lt;/font&gt;" style="text;html=1;align=center;verticalAlign=middle;whiteSpace=wrap;rounded=0;fontFamily=Helvetica;fontSize=12;fontColor=#ffffff;" parent="1" vertex="1">
                    <mxGeometry x="733.5" y="644" width="134" height="30" as="geometry"/>
                </mxCell>
                <mxCell id="3IAuQP8cZI7VwLqN17xs-46" value="flag(1byte)" style="rounded=0;whiteSpace=wrap;html=1;fillColor=#fa6800;fontColor=#000000;strokeColor=#C73500;shadow=1;glass=0;" parent="1" vertex="1">
                    <mxGeometry x="180" y="545" width="320" height="40" as="geometry"/>
                </mxCell>
                <mxCell id="3IAuQP8cZI7VwLqN17xs-47" value="" style="verticalLabelPosition=bottom;shadow=0;dashed=0;align=center;html=1;verticalAlign=top;strokeWidth=2;shape=mxgraph.mockup.markup.curlyBrace;whiteSpace=wrap;strokeColor=#C73500;rounded=0;glass=0;fontFamily=Helvetica;fontSize=12;fontColor=#000000;fillColor=#fa6800;" parent="1" vertex="1">
                    <mxGeometry x="180" y="483" width="320" height="62" as="geometry"/>
                </mxCell>
                <mxCell id="3IAuQP8cZI7VwLqN17xs-49" value="&lt;font style=&quot;font-size: 8px;&quot;&gt;bit7&lt;/font&gt;" style="rounded=0;whiteSpace=wrap;html=1;fillColor=#f0a30a;fontColor=#000000;strokeColor=#BD7000;shadow=1;glass=0;" parent="1" vertex="1">
                    <mxGeometry x="180" y="585" width="40" height="20" as="geometry"/>
                </mxCell>
                <mxCell id="3IAuQP8cZI7VwLqN17xs-50" value="&lt;font style=&quot;font-size: 8px;&quot;&gt;bit6&lt;/font&gt;" style="rounded=0;whiteSpace=wrap;html=1;fillColor=#f0a30a;fontColor=#000000;strokeColor=#BD7000;shadow=1;glass=0;" parent="1" vertex="1">
                    <mxGeometry x="220" y="585" width="40" height="20" as="geometry"/>
                </mxCell>
                <mxCell id="3IAuQP8cZI7VwLqN17xs-54" value="&lt;font style=&quot;font-size: 8px;&quot;&gt;bit5&lt;/font&gt;" style="rounded=0;whiteSpace=wrap;html=1;fillColor=#f0a30a;fontColor=#000000;strokeColor=#BD7000;shadow=1;glass=0;" parent="1" vertex="1">
                    <mxGeometry x="260" y="585" width="40" height="20" as="geometry"/>
                </mxCell>
                <mxCell id="3IAuQP8cZI7VwLqN17xs-55" value="&lt;font style=&quot;font-size: 8px;&quot;&gt;bit4&lt;/font&gt;" style="rounded=0;whiteSpace=wrap;html=1;fillColor=#f0a30a;fontColor=#000000;strokeColor=#BD7000;shadow=1;glass=0;" parent="1" vertex="1">
                    <mxGeometry x="300" y="585" width="40" height="20" as="geometry"/>
                </mxCell>
                <mxCell id="3IAuQP8cZI7VwLqN17xs-56" value="&lt;font style=&quot;font-size: 8px;&quot;&gt;bit3&lt;/font&gt;" style="rounded=0;whiteSpace=wrap;html=1;fillColor=#f0a30a;fontColor=#000000;strokeColor=#BD7000;shadow=1;glass=0;" parent="1" vertex="1">
                    <mxGeometry x="340" y="585" width="40" height="20" as="geometry"/>
                </mxCell>
                <mxCell id="3IAuQP8cZI7VwLqN17xs-57" value="&lt;font style=&quot;font-size: 8px;&quot;&gt;bit2&lt;/font&gt;" style="rounded=0;whiteSpace=wrap;html=1;fillColor=#f0a30a;fontColor=#000000;strokeColor=#BD7000;shadow=1;glass=0;" parent="1" vertex="1">
                    <mxGeometry x="380" y="585" width="40" height="20" as="geometry"/>
                </mxCell>
                <mxCell id="3IAuQP8cZI7VwLqN17xs-58" value="&lt;font style=&quot;font-size: 8px;&quot;&gt;bit1&lt;/font&gt;" style="rounded=0;whiteSpace=wrap;html=1;fillColor=#f0a30a;fontColor=#000000;strokeColor=#BD7000;shadow=1;glass=0;" parent="1" vertex="1">
                    <mxGeometry x="420" y="585" width="40" height="20" as="geometry"/>
                </mxCell>
                <mxCell id="3IAuQP8cZI7VwLqN17xs-59" value="&lt;font style=&quot;font-size: 8px;&quot;&gt;bit0&lt;/font&gt;" style="rounded=0;whiteSpace=wrap;html=1;fillColor=#f0a30a;fontColor=#000000;strokeColor=#BD7000;shadow=1;glass=0;" parent="1" vertex="1">
                    <mxGeometry x="460" y="585" width="40" height="20" as="geometry"/>
                </mxCell>
                <mxCell id="3IAuQP8cZI7VwLqN17xs-64" value="" style="group;shadow=0;" parent="1" vertex="1" connectable="0">
                    <mxGeometry x="180" y="605" width="320" height="40" as="geometry"/>
                </mxCell>
                <mxCell id="3IAuQP8cZI7VwLqN17xs-63" value="&lt;font style=&quot;font-size: 8px;&quot;&gt;error&lt;/font&gt;" style="rounded=0;whiteSpace=wrap;html=1;fillColor=#f0a30a;fontColor=#000000;strokeColor=#BD7000;shadow=0;glass=0;" parent="3IAuQP8cZI7VwLqN17xs-64" vertex="1">
                    <mxGeometry x="80" width="40" height="40" as="geometry"/>
                </mxCell>
                <mxCell id="3IAuQP8cZI7VwLqN17xs-45" value="&lt;font style=&quot;font-size: 8px;&quot;&gt;version&lt;/font&gt;" style="rounded=0;whiteSpace=wrap;html=1;fillColor=#f0a30a;fontColor=#000000;strokeColor=#BD7000;shadow=0;glass=0;" parent="3IAuQP8cZI7VwLqN17xs-64" vertex="1">
                    <mxGeometry x="160" width="160" height="40" as="geometry"/>
                </mxCell>
                <mxCell id="3IAuQP8cZI7VwLqN17xs-41" value="" style="rounded=0;whiteSpace=wrap;html=1;fillColor=#f0a30a;fontColor=#000000;strokeColor=#BD7000;shadow=0;glass=0;" parent="3IAuQP8cZI7VwLqN17xs-64" vertex="1">
                    <mxGeometry width="40" height="40" as="geometry"/>
                </mxCell>
                <mxCell id="3IAuQP8cZI7VwLqN17xs-60" value="&lt;font style=&quot;font-size: 8px;&quot;&gt;indicate&lt;/font&gt;" style="rounded=0;whiteSpace=wrap;html=1;fillColor=#f0a30a;fontColor=#000000;strokeColor=#BD7000;shadow=0;glass=0;" parent="3IAuQP8cZI7VwLqN17xs-64" vertex="1">
                    <mxGeometry x="120" width="40" height="40" as="geometry"/>
                </mxCell>
                <mxCell id="3IAuQP8cZI7VwLqN17xs-42" value="" style="rounded=0;whiteSpace=wrap;html=1;fillColor=#f0a30a;fontColor=#000000;strokeColor=#BD7000;shadow=0;glass=0;" parent="3IAuQP8cZI7VwLqN17xs-64" vertex="1">
                    <mxGeometry x="40" width="40" height="40" as="geometry"/>
                </mxCell>
                <mxCell id="2" value="&lt;font style=&quot;font-size: 8px; color: rgb(255, 255, 255);&quot;&gt;1byte&lt;/font&gt;" style="rounded=0;whiteSpace=wrap;html=1;fillColor=#0050ef;fontColor=#FFFFFF;strokeColor=#001DBC;shadow=1;glass=0;" parent="1" vertex="1">
                    <mxGeometry x="280" y="439.5" width="40" height="40" as="geometry"/>
                </mxCell>
                <mxCell id="3" value="&lt;font style=&quot;font-size: 8px; color: rgb(255, 255, 255);&quot;&gt;1byte&lt;/font&gt;" style="rounded=0;whiteSpace=wrap;html=1;fillColor=#0050ef;fontColor=#FFFFFF;strokeColor=#001DBC;shadow=1;glass=0;" parent="1" vertex="1">
                    <mxGeometry x="320" y="439.5" width="40" height="40" as="geometry"/>
                </mxCell>
                <mxCell id="4" value="&lt;font style=&quot;font-size: 8px; color: rgb(255, 255, 255);&quot;&gt;2bytes&lt;/font&gt;" style="rounded=0;whiteSpace=wrap;html=1;fillColor=#0050ef;fontColor=#FFFFFF;strokeColor=#001DBC;shadow=1;glass=0;" parent="1" vertex="1">
                    <mxGeometry x="360" y="439.5" width="80" height="40" as="geometry"/>
                </mxCell>
                <mxCell id="5" value="&lt;font style=&quot;font-size: 8px; color: rgb(255, 255, 255);&quot;&gt;2bytes&lt;/font&gt;" style="rounded=0;whiteSpace=wrap;html=1;fillColor=#0050ef;fontColor=#FFFFFF;strokeColor=#001DBC;shadow=1;glass=0;" parent="1" vertex="1">
                    <mxGeometry x="440" y="439.5" width="80" height="40" as="geometry"/>
                </mxCell>
                <mxCell id="6" value="&lt;font style=&quot;font-size: 8px; color: rgb(255, 255, 255);&quot;&gt;2bytes&lt;/font&gt;" style="rounded=0;whiteSpace=wrap;html=1;fillColor=#0050ef;fontColor=#FFFFFF;strokeColor=#001DBC;shadow=1;glass=0;" parent="1" vertex="1">
                    <mxGeometry x="520" y="439.5" width="80" height="40" as="geometry"/>
                </mxCell>
                <mxCell id="8" value="&lt;span style=&quot;font-size: 8px;&quot;&gt;0-65534 bytes&lt;/span&gt;" style="rounded=0;whiteSpace=wrap;html=1;fillColor=#60a917;fontColor=#ffffff;strokeColor=#2D7600;shadow=1;glass=0;" parent="1" vertex="1">
                    <mxGeometry x="641" y="400" width="317" height="40" as="geometry"/>
                </mxCell>
                <mxCell id="3IAuQP8cZI7VwLqN17xs-65" value="&lt;span style=&quot;font-size: 8px;&quot;&gt;item-0&lt;/span&gt;" style="rounded=0;whiteSpace=wrap;html=1;fillColor=#60a917;fontColor=#ffffff;strokeColor=#2D7600;shadow=1;glass=0;" parent="1" vertex="1">
                    <mxGeometry x="641" y="439.5" width="119" height="40" as="geometry"/>
                </mxCell>
                <mxCell id="3IAuQP8cZI7VwLqN17xs-69" value="&lt;span style=&quot;font-size: 8px;&quot;&gt;....&lt;/span&gt;" style="rounded=0;whiteSpace=wrap;html=1;fillColor=#60a917;fontColor=#ffffff;strokeColor=#2D7600;shadow=1;glass=0;" parent="1" vertex="1">
                    <mxGeometry x="760" y="439.5" width="79" height="40" as="geometry"/>
                </mxCell>
                <mxCell id="11" value="&lt;span style=&quot;font-size: 8px;&quot;&gt;1byte&lt;/span&gt;" style="rounded=0;whiteSpace=wrap;html=1;fillColor=#cdeb8b;strokeColor=#36393d;shadow=1;glass=0;" parent="1" vertex="1">
                    <mxGeometry x="636.5" y="553" width="40" height="40" as="geometry"/>
                </mxCell>
                <mxCell id="12" value="&lt;span style=&quot;font-size: 8px;&quot;&gt;1byte&lt;/span&gt;" style="rounded=0;whiteSpace=wrap;html=1;fillColor=#cdeb8b;strokeColor=#36393d;shadow=1;glass=0;" parent="1" vertex="1">
                    <mxGeometry x="676.5" y="553" width="40" height="40" as="geometry"/>
                </mxCell>
                <mxCell id="13" value="&lt;span style=&quot;font-size: 8px;&quot;&gt;0-n byte(s)&lt;/span&gt;" style="rounded=0;whiteSpace=wrap;html=1;fillColor=#cdeb8b;strokeColor=#36393d;shadow=1;glass=0;" parent="1" vertex="1">
                    <mxGeometry x="716.5" y="553" width="48" height="40" as="geometry"/>
                </mxCell>
                <mxCell id="3IAuQP8cZI7VwLqN17xs-66" value="&lt;span style=&quot;font-size: 8px;&quot;&gt;item-1&lt;/span&gt;" style="rounded=0;whiteSpace=wrap;html=1;fillColor=#60a917;fontColor=#ffffff;strokeColor=#2D7600;shadow=1;glass=0;" parent="1" vertex="1">
                    <mxGeometry x="839" y="439.5" width="119" height="40" as="geometry"/>
                </mxCell>
                <mxCell id="3IAuQP8cZI7VwLqN17xs-12" value="&lt;span style=&quot;font-size: 8px;&quot;&gt;command&lt;/span&gt;" style="rounded=0;whiteSpace=wrap;html=1;fillColor=#60a917;fontColor=#ffffff;strokeColor=#2D7600;shadow=1;glass=0;" parent="1" vertex="1">
                    <mxGeometry x="601" y="400" width="39" height="40" as="geometry"/>
                </mxCell>
                <mxCell id="7" value="&lt;span style=&quot;font-size: 8px;&quot;&gt;1byte&lt;/span&gt;" style="rounded=0;whiteSpace=wrap;html=1;fillColor=#60a917;fontColor=#ffffff;strokeColor=#2D7600;shadow=1;glass=0;" parent="1" vertex="1">
                    <mxGeometry x="601" y="439.5" width="39" height="40" as="geometry"/>
                </mxCell>
            </root>
        </mxGraphModel>
    </diagram>
    <diagram id="hVCCTrjyFrvwT1X99eSC" name="SOS-report-server">
        <mxGraphModel dx="786" dy="562" grid="0" gridSize="10" guides="1" tooltips="1" connect="1" arrows="1" fold="1" page="1" pageScale="1" pageWidth="827" pageHeight="1169" math="0" shadow="0">
            <root>
                <mxCell id="0"/>
                <mxCell id="1" parent="0"/>
                <mxCell id="q0mAjFtpMTi6tQAR1tSb-1" value="Device" style="shape=umlLifeline;perimeter=lifelinePerimeter;whiteSpace=wrap;html=1;container=1;dropTarget=0;collapsible=0;recursiveResize=0;outlineConnect=0;portConstraint=eastwest;newEdgeStyle={&quot;edgeStyle&quot;:&quot;elbowEdgeStyle&quot;,&quot;elbow&quot;:&quot;vertical&quot;,&quot;curved&quot;:0,&quot;rounded&quot;:0};" vertex="1" parent="1">
                    <mxGeometry x="280" y="280" width="100" height="525" as="geometry"/>
                </mxCell>
                <mxCell id="q0mAjFtpMTi6tQAR1tSb-9" value="" style="html=1;points=[[0,0,0,0,5],[0,1,0,0,-5],[1,0,0,0,5],[1,1,0,0,-5]];perimeter=orthogonalPerimeter;outlineConnect=0;targetShapes=umlLifeline;portConstraint=eastwest;newEdgeStyle={&quot;curved&quot;:0,&quot;rounded&quot;:0};" vertex="1" parent="q0mAjFtpMTi6tQAR1tSb-1">
                    <mxGeometry x="45" y="112" width="10" height="394" as="geometry"/>
                </mxCell>
                <mxCell id="qU9w0UplLmw-9oxBHpuN-3" value="" style="html=1;points=[[0,0,0,0,5],[0,1,0,0,-5],[1,0,0,0,5],[1,1,0,0,-5]];perimeter=orthogonalPerimeter;outlineConnect=0;targetShapes=umlLifeline;portConstraint=eastwest;newEdgeStyle={&quot;curved&quot;:0,&quot;rounded&quot;:0};" vertex="1" parent="q0mAjFtpMTi6tQAR1tSb-1">
                    <mxGeometry x="45" y="317" width="10" height="40" as="geometry"/>
                </mxCell>
                <mxCell id="q0mAjFtpMTi6tQAR1tSb-2" value="Server" style="shape=umlLifeline;perimeter=lifelinePerimeter;whiteSpace=wrap;html=1;container=1;dropTarget=0;collapsible=0;recursiveResize=0;outlineConnect=0;portConstraint=eastwest;newEdgeStyle={&quot;edgeStyle&quot;:&quot;elbowEdgeStyle&quot;,&quot;elbow&quot;:&quot;vertical&quot;,&quot;curved&quot;:0,&quot;rounded&quot;:0};" vertex="1" parent="1">
                    <mxGeometry x="560" y="280" width="100" height="528" as="geometry"/>
                </mxCell>
                <mxCell id="q0mAjFtpMTi6tQAR1tSb-13" value="" style="html=1;points=[[0,0,0,0,5],[0,1,0,0,-5],[1,0,0,0,5],[1,1,0,0,-5]];perimeter=orthogonalPerimeter;outlineConnect=0;targetShapes=umlLifeline;portConstraint=eastwest;newEdgeStyle={&quot;curved&quot;:0,&quot;rounded&quot;:0};" vertex="1" parent="q0mAjFtpMTi6tQAR1tSb-2">
                    <mxGeometry x="45" y="127" width="10" height="62" as="geometry"/>
                </mxCell>
                <mxCell id="q0mAjFtpMTi6tQAR1tSb-14" value="&lt;font style=&quot;font-size: 7px;&quot;&gt;deviceId/AlarmCode/DeviceStatus&lt;/font&gt;&lt;div&gt;&lt;font style=&quot;font-size: 7px;&quot;&gt;/Location(GPS/GSM/BLE/HomeBeacon/Beacon/HomeWiFi)&lt;/font&gt;&lt;/div&gt;" style="html=1;verticalAlign=bottom;endArrow=block;curved=0;rounded=0;entryX=0;entryY=0;entryDx=0;entryDy=5;align=center;" edge="1" target="q0mAjFtpMTi6tQAR1tSb-13" parent="1" source="q0mAjFtpMTi6tQAR1tSb-9">
                    <mxGeometry relative="1" as="geometry">
                        <mxPoint x="535" y="365" as="sourcePoint"/>
                        <mxPoint as="offset"/>
                    </mxGeometry>
                </mxCell>
                <mxCell id="q0mAjFtpMTi6tQAR1tSb-15" value="&lt;font style=&quot;font-size: 7px;&quot;&gt;ack(0xAB 40 01 00 42 20 xx xx 02)&lt;/font&gt;&lt;div&gt;&lt;font style=&quot;font-size: 7px;&quot;&gt;(xx xx is &lt;b&gt;Transcation Identify&lt;/b&gt; number )&amp;nbsp;&lt;/font&gt;&lt;/div&gt;" style="html=1;verticalAlign=bottom;endArrow=open;dashed=1;endSize=8;curved=0;rounded=0;exitX=0;exitY=1;exitDx=0;exitDy=-5;" edge="1" source="q0mAjFtpMTi6tQAR1tSb-13" parent="1" target="q0mAjFtpMTi6tQAR1tSb-9">
                    <mxGeometry relative="1" as="geometry">
                        <mxPoint x="535" y="435" as="targetPoint"/>
                        <mxPoint as="offset"/>
                    </mxGeometry>
                </mxCell>
                <mxCell id="q0mAjFtpMTi6tQAR1tSb-16" value="SOS report to server" style="text;html=1;align=center;verticalAlign=middle;whiteSpace=wrap;rounded=0;" vertex="1" parent="1">
                    <mxGeometry x="320" y="230" width="320" height="30" as="geometry"/>
                </mxCell>
                <mxCell id="qU9w0UplLmw-9oxBHpuN-1" value="ack received, alert success" style="shape=note;strokeWidth=2;fontSize=7;size=20;whiteSpace=wrap;html=1;fillColor=#fff2cc;strokeColor=#d6b656;fontColor=#666600;" vertex="1" parent="1">
                    <mxGeometry x="339" y="482" width="127" height="29" as="geometry"/>
                </mxCell>
            </root>
        </mxGraphModel>
    </diagram>
    <diagram id="-3y3wqpMXb_duQvqtmg5" name="file-create-file-write">
        <mxGraphModel dx="1147" dy="820" grid="1" gridSize="10" guides="1" tooltips="1" connect="1" arrows="1" fold="1" page="1" pageScale="1" pageWidth="827" pageHeight="1169" math="0" shadow="0">
            <root>
                <mxCell id="0"/>
                <mxCell id="1" parent="0"/>
                <mxCell id="mkkl-mxrbXYE4HJO0zSJ-1" value="Host" style="shape=umlLifeline;perimeter=lifelinePerimeter;whiteSpace=wrap;html=1;container=1;dropTarget=0;collapsible=0;recursiveResize=0;outlineConnect=0;portConstraint=eastwest;newEdgeStyle={&quot;curved&quot;:0,&quot;rounded&quot;:0};" vertex="1" parent="1">
                    <mxGeometry x="120" y="200" width="100" height="720" as="geometry"/>
                </mxCell>
                <mxCell id="mkkl-mxrbXYE4HJO0zSJ-4" value="" style="html=1;points=[[0,0,0,0,5],[0,1,0,0,-5],[1,0,0,0,5],[1,1,0,0,-5]];perimeter=orthogonalPerimeter;outlineConnect=0;targetShapes=umlLifeline;portConstraint=eastwest;newEdgeStyle={&quot;curved&quot;:0,&quot;rounded&quot;:0};" vertex="1" parent="mkkl-mxrbXYE4HJO0zSJ-1">
                    <mxGeometry x="45" y="80" width="10" height="640" as="geometry"/>
                </mxCell>
                <mxCell id="mkkl-mxrbXYE4HJO0zSJ-14" value="repeat" style="shape=umlFrame;whiteSpace=wrap;html=1;pointerEvents=0;" vertex="1" parent="mkkl-mxrbXYE4HJO0zSJ-1">
                    <mxGeometry y="320" width="410" height="135" as="geometry"/>
                </mxCell>
                <mxCell id="mkkl-mxrbXYE4HJO0zSJ-15" value="" style="html=1;points=[[0,0,0,0,5],[0,1,0,0,-5],[1,0,0,0,5],[1,1,0,0,-5]];perimeter=orthogonalPerimeter;outlineConnect=0;targetShapes=umlLifeline;portConstraint=eastwest;newEdgeStyle={&quot;curved&quot;:0,&quot;rounded&quot;:0};" vertex="1" parent="mkkl-mxrbXYE4HJO0zSJ-1">
                    <mxGeometry x="325" y="355" width="10" height="80" as="geometry"/>
                </mxCell>
                <mxCell id="mkkl-mxrbXYE4HJO0zSJ-16" value="write file content(key=0x11)" style="html=1;verticalAlign=bottom;endArrow=block;curved=0;rounded=0;entryX=0;entryY=0;entryDx=0;entryDy=5;" edge="1" target="mkkl-mxrbXYE4HJO0zSJ-15" parent="mkkl-mxrbXYE4HJO0zSJ-1">
                    <mxGeometry relative="1" as="geometry">
                        <mxPoint x="55" y="360" as="sourcePoint"/>
                    </mxGeometry>
                </mxCell>
                <mxCell id="mkkl-mxrbXYE4HJO0zSJ-17" value="content received" style="html=1;verticalAlign=bottom;endArrow=open;dashed=1;endSize=8;curved=0;rounded=0;exitX=0;exitY=1;exitDx=0;exitDy=-5;" edge="1" source="mkkl-mxrbXYE4HJO0zSJ-15" parent="mkkl-mxrbXYE4HJO0zSJ-1">
                    <mxGeometry relative="1" as="geometry">
                        <mxPoint x="55" y="430" as="targetPoint"/>
                    </mxGeometry>
                </mxCell>
                <mxCell id="mkkl-mxrbXYE4HJO0zSJ-28" value="" style="html=1;points=[[0,0,0,0,5],[0,1,0,0,-5],[1,0,0,0,5],[1,1,0,0,-5]];perimeter=orthogonalPerimeter;outlineConnect=0;targetShapes=umlLifeline;portConstraint=eastwest;newEdgeStyle={&quot;curved&quot;:0,&quot;rounded&quot;:0};" vertex="1" parent="mkkl-mxrbXYE4HJO0zSJ-1">
                    <mxGeometry x="325" y="385" width="10" height="40" as="geometry"/>
                </mxCell>
                <mxCell id="mkkl-mxrbXYE4HJO0zSJ-29" value="write file" style="html=1;align=left;spacingLeft=2;endArrow=block;rounded=0;edgeStyle=orthogonalEdgeStyle;curved=0;rounded=0;" edge="1" target="mkkl-mxrbXYE4HJO0zSJ-28" parent="mkkl-mxrbXYE4HJO0zSJ-1" source="mkkl-mxrbXYE4HJO0zSJ-15">
                    <mxGeometry relative="1" as="geometry">
                        <mxPoint x="340" y="365" as="sourcePoint"/>
                        <Array as="points">
                            <mxPoint x="360" y="365"/>
                            <mxPoint x="360" y="395"/>
                        </Array>
                    </mxGeometry>
                </mxCell>
                <mxCell id="mkkl-mxrbXYE4HJO0zSJ-2" value="Device" style="shape=umlLifeline;perimeter=lifelinePerimeter;whiteSpace=wrap;html=1;container=1;dropTarget=0;collapsible=0;recursiveResize=0;outlineConnect=0;portConstraint=eastwest;newEdgeStyle={&quot;curved&quot;:0,&quot;rounded&quot;:0};" vertex="1" parent="1">
                    <mxGeometry x="400" y="200" width="100" height="720" as="geometry"/>
                </mxCell>
                <mxCell id="mkkl-mxrbXYE4HJO0zSJ-11" value="" style="html=1;points=[[0,0,0,0,5],[0,1,0,0,-5],[1,0,0,0,5],[1,1,0,0,-5]];perimeter=orthogonalPerimeter;outlineConnect=0;targetShapes=umlLifeline;portConstraint=eastwest;newEdgeStyle={&quot;curved&quot;:0,&quot;rounded&quot;:0};" vertex="1" parent="mkkl-mxrbXYE4HJO0zSJ-2">
                    <mxGeometry x="45" y="90" width="10" height="80" as="geometry"/>
                </mxCell>
                <mxCell id="mkkl-mxrbXYE4HJO0zSJ-18" value="" style="html=1;points=[[0,0,0,0,5],[0,1,0,0,-5],[1,0,0,0,5],[1,1,0,0,-5]];perimeter=orthogonalPerimeter;outlineConnect=0;targetShapes=umlLifeline;portConstraint=eastwest;newEdgeStyle={&quot;curved&quot;:0,&quot;rounded&quot;:0};" vertex="1" parent="mkkl-mxrbXYE4HJO0zSJ-2">
                    <mxGeometry x="45" y="500" width="10" height="80" as="geometry"/>
                </mxCell>
                <mxCell id="mkkl-mxrbXYE4HJO0zSJ-21" value="" style="html=1;points=[[0,0,0,0,5],[0,1,0,0,-5],[1,0,0,0,5],[1,1,0,0,-5]];perimeter=orthogonalPerimeter;outlineConnect=0;targetShapes=umlLifeline;portConstraint=eastwest;newEdgeStyle={&quot;curved&quot;:0,&quot;rounded&quot;:0};" vertex="1" parent="mkkl-mxrbXYE4HJO0zSJ-2">
                    <mxGeometry x="45" y="620" width="10" height="80" as="geometry"/>
                </mxCell>
                <mxCell id="mkkl-mxrbXYE4HJO0zSJ-24" value="" style="html=1;points=[[0,0,0,0,5],[0,1,0,0,-5],[1,0,0,0,5],[1,1,0,0,-5]];perimeter=orthogonalPerimeter;outlineConnect=0;targetShapes=umlLifeline;portConstraint=eastwest;newEdgeStyle={&quot;curved&quot;:0,&quot;rounded&quot;:0};" vertex="1" parent="mkkl-mxrbXYE4HJO0zSJ-2">
                    <mxGeometry x="45" y="640" width="10" height="40" as="geometry"/>
                </mxCell>
                <mxCell id="mkkl-mxrbXYE4HJO0zSJ-25" value="resources release" style="html=1;align=left;spacingLeft=2;endArrow=block;rounded=0;edgeStyle=orthogonalEdgeStyle;curved=0;rounded=0;" edge="1" target="mkkl-mxrbXYE4HJO0zSJ-24" parent="mkkl-mxrbXYE4HJO0zSJ-2">
                    <mxGeometry relative="1" as="geometry">
                        <mxPoint x="60" y="630" as="sourcePoint"/>
                        <Array as="points">
                            <mxPoint x="80" y="660"/>
                        </Array>
                    </mxGeometry>
                </mxCell>
                <mxCell id="mkkl-mxrbXYE4HJO0zSJ-26" value="" style="html=1;points=[[0,0,0,0,5],[0,1,0,0,-5],[1,0,0,0,5],[1,1,0,0,-5]];perimeter=orthogonalPerimeter;outlineConnect=0;targetShapes=umlLifeline;portConstraint=eastwest;newEdgeStyle={&quot;curved&quot;:0,&quot;rounded&quot;:0};" vertex="1" parent="mkkl-mxrbXYE4HJO0zSJ-2">
                    <mxGeometry x="45" y="120" width="10" height="40" as="geometry"/>
                </mxCell>
                <mxCell id="mkkl-mxrbXYE4HJO0zSJ-27" value="prepare resouce" style="html=1;align=left;spacingLeft=2;endArrow=block;rounded=0;edgeStyle=orthogonalEdgeStyle;curved=0;rounded=0;" edge="1" target="mkkl-mxrbXYE4HJO0zSJ-26" parent="mkkl-mxrbXYE4HJO0zSJ-2">
                    <mxGeometry relative="1" as="geometry">
                        <mxPoint x="50" y="100" as="sourcePoint"/>
                        <Array as="points">
                            <mxPoint x="80" y="130"/>
                        </Array>
                    </mxGeometry>
                </mxCell>
                <mxCell id="mkkl-mxrbXYE4HJO0zSJ-30" value="" style="html=1;points=[[0,0,0,0,5],[0,1,0,0,-5],[1,0,0,0,5],[1,1,0,0,-5]];perimeter=orthogonalPerimeter;outlineConnect=0;targetShapes=umlLifeline;portConstraint=eastwest;newEdgeStyle={&quot;curved&quot;:0,&quot;rounded&quot;:0};" vertex="1" parent="mkkl-mxrbXYE4HJO0zSJ-2">
                    <mxGeometry x="45" y="530" width="10" height="40" as="geometry"/>
                </mxCell>
                <mxCell id="mkkl-mxrbXYE4HJO0zSJ-31" value="hash/crc calculation" style="html=1;align=left;spacingLeft=2;endArrow=block;rounded=0;edgeStyle=orthogonalEdgeStyle;curved=0;rounded=0;" edge="1" target="mkkl-mxrbXYE4HJO0zSJ-30" parent="mkkl-mxrbXYE4HJO0zSJ-2">
                    <mxGeometry relative="1" as="geometry">
                        <mxPoint x="55" y="510" as="sourcePoint"/>
                        <Array as="points">
                            <mxPoint x="85" y="540"/>
                        </Array>
                    </mxGeometry>
                </mxCell>
                <mxCell id="mkkl-mxrbXYE4HJO0zSJ-12" value="open file(key=0x10)" style="html=1;verticalAlign=bottom;endArrow=block;curved=0;rounded=0;entryX=0;entryY=0;entryDx=0;entryDy=5;" edge="1" target="mkkl-mxrbXYE4HJO0zSJ-11" parent="1" source="mkkl-mxrbXYE4HJO0zSJ-4">
                    <mxGeometry relative="1" as="geometry">
                        <mxPoint x="180" y="295" as="sourcePoint"/>
                    </mxGeometry>
                </mxCell>
                <mxCell id="mkkl-mxrbXYE4HJO0zSJ-13" value="file is open, ready" style="html=1;verticalAlign=bottom;endArrow=open;dashed=1;endSize=8;curved=0;rounded=0;exitX=0;exitY=1;exitDx=0;exitDy=-5;" edge="1" source="mkkl-mxrbXYE4HJO0zSJ-11" parent="1" target="mkkl-mxrbXYE4HJO0zSJ-4">
                    <mxGeometry relative="1" as="geometry">
                        <mxPoint x="375" y="365" as="targetPoint"/>
                    </mxGeometry>
                </mxCell>
                <mxCell id="mkkl-mxrbXYE4HJO0zSJ-19" value="file verify(key=0x1D)" style="html=1;verticalAlign=bottom;endArrow=block;curved=0;rounded=0;entryX=0;entryY=0;entryDx=0;entryDy=5;" edge="1" target="mkkl-mxrbXYE4HJO0zSJ-18" parent="1">
                    <mxGeometry relative="1" as="geometry">
                        <mxPoint x="169.81034482758605" y="705" as="sourcePoint"/>
                    </mxGeometry>
                </mxCell>
                <mxCell id="mkkl-mxrbXYE4HJO0zSJ-20" value="verify result" style="html=1;verticalAlign=bottom;endArrow=open;dashed=1;endSize=8;curved=0;rounded=0;exitX=0;exitY=1;exitDx=0;exitDy=-5;" edge="1" source="mkkl-mxrbXYE4HJO0zSJ-18" parent="1">
                    <mxGeometry relative="1" as="geometry">
                        <mxPoint x="175" y="775" as="targetPoint"/>
                    </mxGeometry>
                </mxCell>
                <mxCell id="mkkl-mxrbXYE4HJO0zSJ-22" value="file close(key=0x1F)" style="html=1;verticalAlign=bottom;endArrow=block;curved=0;rounded=0;entryX=0;entryY=0;entryDx=0;entryDy=5;" edge="1" target="mkkl-mxrbXYE4HJO0zSJ-21" parent="1">
                    <mxGeometry relative="1" as="geometry">
                        <mxPoint x="169.81034482758605" y="825" as="sourcePoint"/>
                    </mxGeometry>
                </mxCell>
                <mxCell id="mkkl-mxrbXYE4HJO0zSJ-23" value="file close result" style="html=1;verticalAlign=bottom;endArrow=open;dashed=1;endSize=8;curved=0;rounded=0;exitX=0;exitY=1;exitDx=0;exitDy=-5;" edge="1" source="mkkl-mxrbXYE4HJO0zSJ-21" parent="1">
                    <mxGeometry relative="1" as="geometry">
                        <mxPoint x="175" y="895.0000000000002" as="targetPoint"/>
                    </mxGeometry>
                </mxCell>
                <mxCell id="mkkl-mxrbXYE4HJO0zSJ-32" value="repeat" style="shape=umlFrame;whiteSpace=wrap;html=1;pointerEvents=0;" vertex="1" parent="1">
                    <mxGeometry x="120" y="380" width="410" height="120" as="geometry"/>
                </mxCell>
                <mxCell id="mkkl-mxrbXYE4HJO0zSJ-33" value="" style="html=1;points=[[0,0,0,0,5],[0,1,0,0,-5],[1,0,0,0,5],[1,1,0,0,-5]];perimeter=orthogonalPerimeter;outlineConnect=0;targetShapes=umlLifeline;portConstraint=eastwest;newEdgeStyle={&quot;curved&quot;:0,&quot;rounded&quot;:0};" vertex="1" parent="1">
                    <mxGeometry x="445" y="410" width="10" height="80" as="geometry"/>
                </mxCell>
                <mxCell id="mkkl-mxrbXYE4HJO0zSJ-34" value="file query info(key=0x1E)" style="html=1;verticalAlign=bottom;endArrow=block;curved=0;rounded=0;entryX=0;entryY=0;entryDx=0;entryDy=5;" edge="1" target="mkkl-mxrbXYE4HJO0zSJ-33" parent="1" source="mkkl-mxrbXYE4HJO0zSJ-4">
                    <mxGeometry relative="1" as="geometry">
                        <mxPoint x="375" y="415" as="sourcePoint"/>
                    </mxGeometry>
                </mxCell>
                <mxCell id="mkkl-mxrbXYE4HJO0zSJ-35" value="file info response" style="html=1;verticalAlign=bottom;endArrow=open;dashed=1;endSize=8;curved=0;rounded=0;exitX=0;exitY=1;exitDx=0;exitDy=-5;" edge="1" source="mkkl-mxrbXYE4HJO0zSJ-33" parent="1" target="mkkl-mxrbXYE4HJO0zSJ-4">
                    <mxGeometry relative="1" as="geometry">
                        <mxPoint x="375" y="485" as="targetPoint"/>
                    </mxGeometry>
                </mxCell>
            </root>
        </mxGraphModel>
    </diagram>
</mxfile>